HIERARCHY
ROOT Hips
{
	OFFSET 0.000000 0.000000 0.000000 
	CHANNELS 6 Xposition Yposition Zposition Yrotation Zrotation Xrotation 
	JOINT Lumbar
	{
		OFFSET 0.000000 0.000000 0.000000 
		CHANNELS 3 Zrotation Xrotation Yrotation
		JOINT Neck
		{
			OFFSET 0.000000 0.445665 0.000000 
			CHANNELS 3 Zrotation Xrotation Yrotation
			End Site
			{
				OFFSET 0.000000 0.227535 0.000000 
			}
		}
		JOINT RightShoulder
		{
			OFFSET 0.019635 0.377685 0.194865 
			CHANNELS 3 Zrotation Xrotation Yrotation
			JOINT RightElbow
			{
				OFFSET 0.000000 -0.243375 0.000000 
				CHANNELS 2 Zrotation Yrotation
				JOINT RightWrist
				{
					OFFSET 0.000000 -0.264825 0.000000 
					CHANNELS 2 Zrotation Xrotation
					End Site
					{
						OFFSET 0.006600 -0.176220 0.000990 
					}
				}
			}
		}
		JOINT LeftShoulder
		{
			OFFSET 0.019635 0.377685 -0.194865 
			CHANNELS 3 Zrotation Xrotation Yrotation
			JOINT LeftElbow
			{
				OFFSET 0.000000 -0.243375 0.000000 
				CHANNELS 2 Zrotation Yrotation
				JOINT LeftWrist
				{
					OFFSET 0.000000 -0.264825 0.000000 
					CHANNELS 2 Zrotation Xrotation
					End Site
					{
						OFFSET 0.006600 -0.176220 -0.000990 
					}
				}
			}
		}
	}
	JOINT RightHip
	{
		OFFSET 0.052140 -0.069960 0.075570 
		CHANNELS 3 Zrotation Xrotation Yrotation
		JOINT RightKnee
		{
			OFFSET 0.000000 -0.402270 0.000000 
			CHANNELS 1 Zrotation
			JOINT RightAnkle
			{
				OFFSET 0.000000 -0.404085 0.000000 
				CHANNELS 3 Zrotation Xrotation Yrotation
				End Site
				{
					OFFSET 0.204105 -0.089430 0.008415 
				}
			}
		}
	}
	JOINT LeftHip
	{
		OFFSET 0.052140 -0.069960 -0.075570 
		CHANNELS 3 Zrotation Xrotation Yrotation
		JOINT LeftKnee
		{
			OFFSET 0.000000 -0.402270 0.000000 
			CHANNELS 1 Zrotation
			JOINT LeftAnkle
			{
				OFFSET 0.000000 -0.404085 0.000000 
				CHANNELS 3 Zrotation Xrotation Yrotation
				End Site
				{
					OFFSET 0.204105 -0.089430 -0.008415 
				}
			}
		}
	}
}
MOTION
Frames: 16
Frame Time: 0.02
-0.13296 -0.5121 -0.11302 -174.48146 -28.2407 11.77485 16.05439 -3.16159 7.69451 -4.69118 -6.67394 -0.83013 89.79286 -10.45029 34.98412 91.37598 80.52364 -5.3073 -1.22872 63.86545 29.29917 -9.37868 116.5428 -80.0126 -5.17224 1.9413 39.7503 -11.3579 -3.1741 -138.8911 -5.33817 -2.83619 -2.03802 120.88345 8.70451 -1.22436 -128.62962 -5.8783 1.34642 1.26621
-0.13311 -0.51207 -0.11292 -174.52099 -27.60015 11.64803 15.34941 -3.0863 7.53002 -4.67286 -6.67671 -0.83015 89.77603 -10.46096 34.98066 91.43773 80.54384 -5.1128 -1.45695 63.83181 29.26917 -9.34303 116.48835 -80.01232 -5.15386 1.93733 38.90131 -11.3707 -3.33681 -138.71314 -5.33848 -2.82897 -2.03459 120.1468 8.65873 -1.23516 -128.68877 -5.87772 1.34358 1.26455
-0.13328 -0.51205 -0.11281 -174.58969 -26.52884 11.44103 14.20935 -2.96395 7.29849 -4.6401 -6.67686 -0.83017 89.77295 -10.47872 34.98264 91.49512 80.57627 -4.81501 -1.83172 63.81493 29.24246 -9.31419 116.42382 -79.99612 -5.15024 1.9359 37.50124 -11.29271 -3.57544 -138.42617 -5.33904 -2.82424 -2.03341 118.92082 8.60779 -1.24727 -128.78088 -5.87808 1.33667 1.26075
-0.13344 -0.51202 -0.1127 -174.64246 -25.69299 11.27671 13.30511 -2.86718 7.10435 -4.61296 -6.67768 -0.83018 89.76305 -10.49398 34.9807 91.55386 80.60112 -4.58338 -2.11623 63.79008 29.21524 -9.28228 116.36602 -79.98795 -5.14083 1.93324 36.40224 -11.26124 -3.77122 -138.19908 -5.33948 -2.81827 -2.03107 117.96339 8.55886 -1.25877 -128.85584 -5.87791 1.33199 1.25815
-0.13361 -0.51199 -0.11261 -174.70603 -24.70095 11.08804 12.25226 -2.75389 6.88286 -4.59005 -6.68055 -0.8302 89.75625 -10.50504 34.98414 91.61438 80.63365 -4.27649 -2.49466 63.76801 29.18375 -9.25033 116.29875 -79.9771 -5.12762 1.93083 35.10338 -11.21284 -4.00104 -137.93075 -5.33994 -2.81248 -2.02911 116.82342 8.51064 -1.27084 -128.93939 -5.87811 1.32593 1.25473
-0.13375 -0.51198 -0.11247 -174.75397 -23.93028 10.93053 11.40315 -2.66368 6.70207 -4.55451 -6.67866 -0.83021 89.74476 -10.52813 34.97843 91.67162 80.6537 -4.09809 -2.71637 63.74274 29.16224 -9.21981 116.24912 -79.96791 -5.12585 1.92853 34.08818 -11.17593 -4.17794 -137.72223 -5.34043 -2.80704 -2.02699 115.94606 8.45996 -1.28182 -129.01293 -5.87778 1.32169 1.25245
-0.13379 -0.51202 -0.11219 -174.75497 -23.8413 10.87506 11.19417 -2.64495 6.64516 -4.49121 -6.66332 -0.83022 89.73119 -10.56938 34.94045 91.70702 80.63289 -4.31806 -2.44601 63.71463 29.16397 -9.19481 116.24798 -79.96539 -5.15136 1.9261 33.94525 -11.19511 -4.19687 -137.69625 -5.34092 -2.80153 -2.02367 115.87058 8.40385 -1.28999 -129.05314 -5.87566 1.32324 1.25371
-0.1338 -0.51209 -0.11186 -174.73882 -23.99341 10.85379 11.2075 -2.65147 6.63197 -4.41511 -6.6435 -0.83022 89.70906 -10.62556 34.89445 91.74173 80.59979 -4.667 -2.01711 63.68011 29.17615 -9.17048 116.26504 -79.96512 -5.18795 1.92368 34.11148 -11.22788 -4.15917 -137.73524 -5.34142 -2.7964 -2.02018 116.08084 8.34538 -1.2969 -129.08195 -5.87285 1.32672 1.25615
-0.13381 -0.51215 -0.11155 -174.72835 -24.05733 10.81924 11.13727 -2.64882 6.60178 -4.34246 -6.62632 -0.83022 89.68269 -10.68288 34.85547 91.78588 80.57471 -4.94416 -1.67762 63.64278 29.18591 -9.14373 116.27607 -79.96508 -5.21995 1.92116 34.1654 -11.25222 -4.1429 -137.75046 -5.34193 -2.79145 -2.01695 116.1876 8.28822 -1.30396 -129.1144 -5.87067 1.32951 1.25812
-0.13387 -0.5122 -0.11127 -174.72749 -24.02046 10.77344 10.98271 -2.63524 6.55768 -4.27902 -6.60636 -0.83022 89.69452 -10.70452 34.80121 91.79166 80.53995 -5.27293 -1.27271 63.63306 29.18629 -9.12604 116.27902 -79.95991 -5.25075 1.91916 34.08698 -11.28288 -4.14638 -137.73873 -5.34242 -2.78514 -2.01305 116.171 8.23048 -1.31272 -129.15401 -5.86788 1.3316 1.25987
-0.13383 -0.51227 -0.11091 -174.70258 -24.25103 10.7589 11.05676 -2.65054 6.55319 -4.19388 -6.59134 -0.83022 89.62031 -10.80701 34.77834 91.87685 80.52204 -5.5267 -0.96097 63.56048 29.2082 -9.08968 116.30111 -79.96532 -5.2863 1.91601 34.35775 -11.30492 -4.09562 -137.79859 -5.34293 -2.78165 -2.01045 116.47963 8.17267 -1.31781 -129.17619 -5.86532 1.33536 1.26222
-0.13356 -0.51238 -0.11038 -174.6117 -25.20878 10.83386 11.75666 -2.74367 6.65306 -4.0492 -6.58974 -0.83023 89.34546 -11.10401 34.83076 92.18454 80.55582 -5.5373 -0.97607 63.34614 29.29092 -9.00134 116.38879 -80.00704 -5.33374 1.90994 35.5796 -11.29878 -3.89687 -138.05236 -5.34353 -2.78661 -2.01176 117.66933 8.12175 -1.31126 -129.1476 -5.86718 1.34458 1.26662
-0.1332 -0.5125 -0.10978 -174.49774 -26.42088 10.93726 12.67232 -2.86448 6.7906 -3.88368 -6.59364 -0.83023 88.97667 -11.48726 34.91738 92.57136 80.60664 -5.46913 -1.08452 63.06268 29.3942 -8.89475 116.49115 -80.05821 -5.38514 1.90258 37.13356 -11.28417 -3.64728 -138.37416 -5.34415 -2.79426 -2.01433 119.1693 8.06947 -1.30136 -129.10274 -5.86594 1.3543 1.27096
-0.13289 -0.51261 -0.1092 -174.39669 -27.48701 11.02049 13.45878 -2.96999 6.90749 -3.7296 -6.59579 -0.83024 88.62933 -11.84652 34.99721 92.9203 80.64803 -5.44073 -1.12855 62.79137 29.48547 -8.79598 116.57662 -80.09985 -5.43378 1.8957 38.49685 -11.27451 -3.42859 -138.65746 -5.34474 -2.80019 -2.01614 120.49455 8.01375 -1.29418 -129.06872 -5.86717 1.36411 1.27556
-0.13255 -0.51272 -0.10866 -174.28491 -28.68828 11.13567 14.38273 -3.08759 7.04066 -3.56688 -6.59419 -0.83024 88.3758 -12.13908 35.0403 93.27839 80.69563 -5.40078 -1.25759 62.60257 29.58832 -8.69705 116.70918 -80.16275 -5.48721 1.88954 40.03709 -11.26047 -3.17537 -138.97513 -5.34541 -2.80821 -2.01876 121.97056 7.97574 -1.28197 -129.0197 -5.87493 1.37636 1.28131
-0.13226 -0.51284 -0.10801 -174.19014 -29.66697 11.19038 15.07057 -3.18654 7.14846 -3.41722 -6.60227 -0.83025 87.89915 -12.59465 35.16754 93.63487 80.73512 -5.36351 -1.23681 62.22384 29.67184 -8.59687 116.74274 -80.18471 -5.53106 1.88125 41.28526 -11.2536 -2.98233 -139.23632 -5.34592 -2.81251 -2.01998 123.20416 7.89972 -1.27935 -128.99831 -5.85451 1.37897 1.282
